<svg xmlns="http://www.w3.org/2000/svg" width="45" height="36" viewBox="0 0 45 36" fill="none">
<path d="M9.0365 26.7803C19.2831 31.9036 25.4311 31.9036 35.6777 26.7803" stroke="white" stroke-width="3.00507" stroke-linecap="round" stroke-linejoin="round"/>
<path d="M29.5297 29.8541L31.579 33.9527C31.579 33.9527 40.1274 31.2306 42.8503 26.7801C42.8503 24.7308 43.9366 10.0851 36.7023 5.26222C33.6283 3.21289 28.505 2.18823 28.505 2.18823L26.4557 6.28688H22.3571" stroke="white" stroke-width="3.00507" stroke-linecap="round" stroke-linejoin="round"/>
<path d="M15.2426 29.8541L13.1932 33.9527C13.1932 33.9527 4.64484 31.2306 1.92196 26.7801C1.92196 24.7308 0.835636 10.0851 8.06993 5.26222C11.1439 3.21289 16.2672 2.18823 16.2672 2.18823L18.3165 6.28688H22.4152" stroke="white" stroke-width="3.00507" stroke-linecap="round" stroke-linejoin="round"/>
<path d="M15.1845 22.6814C13.4867 22.6814 12.1105 20.8465 12.1105 18.5828C12.1105 16.3191 13.4867 14.4841 15.1845 14.4841C16.8822 14.4841 18.2584 16.3191 18.2584 18.5828C18.2584 20.8465 16.8822 22.6814 15.1845 22.6814Z" stroke="white" stroke-width="3.00507" stroke-linecap="round" stroke-linejoin="round"/>
<path d="M29.5297 22.6814C27.832 22.6814 26.4557 20.8465 26.4557 18.5828C26.4557 16.3191 27.832 14.4841 29.5297 14.4841C31.2273 14.4841 32.6037 16.3191 32.6037 18.5828C32.6037 20.8465 31.2273 22.6814 29.5297 22.6814Z" stroke="white" stroke-width="3.00507" stroke-linecap="round" stroke-linejoin="round"/>
</svg>