<svg width="98" height="74" viewBox="0 0 98 74" fill="none" xmlns="http://www.w3.org/2000/svg">
<path d="M83.0153 6.19738C76.5766 3.26048 69.7794 1.17695 62.7972 0C61.8417 1.70169 60.9772 3.45251 60.2073 5.24512C52.7699 4.12853 45.2066 4.12853 37.7692 5.24512C36.9989 3.4527 36.1344 1.7019 35.1793 0C28.1927 1.18689 21.391 3.27537 14.9458 6.21274C2.15046 25.0737 -1.31815 43.4662 0.416159 61.5976C7.90942 67.1134 16.2965 71.3084 25.2129 74C27.2206 71.3097 28.9971 68.4556 30.5237 65.468C27.6242 64.3891 24.8257 63.058 22.1605 61.49C22.8619 60.9832 23.5479 60.461 24.2108 59.9541C31.9658 63.5877 40.4301 65.4716 48.9998 65.4716C57.5696 65.4716 66.0338 63.5877 73.7888 59.9541C74.4594 60.4994 75.1454 61.0216 75.8392 61.49C73.1688 63.0605 70.3652 64.3942 67.4605 65.4757C68.9852 68.4619 70.7619 71.3136 72.7714 74C81.6953 71.3192 90.0889 67.1262 97.5835 61.6052C99.6184 40.5787 94.1072 22.3551 83.0153 6.19738ZM32.7205 50.4469C27.8876 50.4469 23.8948 46.0772 23.8948 40.7015C23.8948 35.3259 27.7488 30.9178 32.7051 30.9178C37.6613 30.9178 41.6232 35.3259 41.5385 40.7015C41.4537 46.0772 37.6459 50.4469 32.7205 50.4469ZM65.2792 50.4469C60.4385 50.4469 56.4612 46.0772 56.4612 40.7015C56.4612 35.3259 60.3152 30.9178 65.2792 30.9178C70.2431 30.9178 74.1742 35.3259 74.0894 40.7015C74.0047 46.0772 70.2046 50.4469 65.2792 50.4469Z" fill="#ffffff"/>
</svg>
